<?xml version="1.0" standalone="no"?>
<!DOCTYPE svg PUBLIC "-//W3C//DTD SVG 20010904//EN"
 "http://www.w3.org/TR/2001/REC-SVG-20010904/DTD/svg10.dtd">
<svg version="1.0" xmlns="http://www.w3.org/2000/svg"
 width="300.000000pt" height="202.000000pt" viewBox="0 0 300.000000 202.000000"
 preserveAspectRatio="xMidYMid meet">
<metadata>
Created by potrace 1.10, written by Peter Selinger 2001-2011
</metadata>
<g transform="translate(0.000000,202.000000) scale(0.100000,-0.100000)"
fill="#000000" stroke="none">
<path d="M1454 1894 c-27 -76 -28 -77 -11 -124 19 -54 20 -69 8 -89 -7 -11
-13 -10 -32 8 -84 78 -183 80 -361 8 -136 -56 -197 -66 -251 -44 -20 9 -37 12
-37 8 0 -13 33 -39 66 -53 l31 -13 -99 -228 -100 -228 23 -34 c81 -118 299
-121 391 -5 l28 36 -96 219 c-53 121 -98 226 -101 233 -4 8 6 12 31 12 20 0
78 9 129 21 116 26 211 28 254 6 33 -17 73 -62 73 -81 0 -6 9 -28 20 -49 18
-34 20 -56 20 -262 0 -192 -3 -231 -17 -258 -10 -20 -18 -65 -21 -117 -2 -47
-11 -98 -19 -113 -19 -38 -68 -57 -148 -57 -70 0 -99 -9 -109 -35 -5 -13 36
-15 354 -15 310 0 360 2 360 15 0 23 -34 35 -105 35 -80 0 -129 19 -148 57 -8
15 -17 67 -19 114 -3 50 -12 98 -22 117 -13 26 -16 68 -16 256 l0 224 29 64
c59 131 108 145 338 97 51 -10 109 -19 129 -19 25 0 35 -4 31 -12 -3 -7 -48
-111 -101 -232 -69 -158 -93 -223 -87 -235 14 -25 62 -67 101 -87 52 -27 172
-25 226 3 52 27 107 89 99 111 -3 9 -47 114 -99 232 l-93 214 36 17 c36 16 68
45 59 54 -3 3 -19 -2 -37 -11 -48 -24 -112 -13 -249 42 -172 70 -249 72 -341
9 l-51 -35 -6 25 c-3 14 1 46 12 74 l17 49 -27 76 c-16 42 -29 76 -31 76 -2 0
-16 -34 -31 -76z m55 -74 c0 -14 -6 -36 -14 -50 l-13 -25 -11 28 c-14 36 -14
73 0 99 11 21 12 21 25 -3 7 -13 13 -35 13 -49z m-180 -107 c3 -4 22 -16 41
-25 19 -10 43 -23 52 -30 15 -11 21 -9 39 9 21 20 22 20 40 2 24 -24 40 -24
65 0 66 61 153 69 274 27 40 -14 77 -31 81 -38 5 -7 9 -10 9 -6 0 4 14 2 31
-4 51 -18 26 -18 -57 -1 -43 9 -118 17 -165 17 -76 1 -90 -2 -125 -25 -22 -15
-48 -44 -58 -65 -10 -21 -27 -56 -37 -76 -17 -33 -19 -61 -19 -260 0 -201 2
-227 20 -267 14 -29 20 -65 20 -111 0 -81 8 -106 50 -154 18 -20 28 -36 24
-37 -13 0 -246 -1 -264 0 -8 1 1 14 22 31 43 36 58 78 58 166 0 40 7 77 20
105 18 40 20 66 20 268 0 202 -2 227 -19 260 -11 20 -27 53 -37 74 -10 23 -34
50 -57 65 -34 23 -52 27 -119 29 -44 1 -99 -4 -123 -12 -24 -7 -46 -11 -49 -8
-2 2 -20 0 -40 -5 -21 -6 -36 -7 -36 -1 0 5 8 9 18 9 10 0 43 12 73 26 30 15
72 32 94 39 43 12 144 11 154 -2z m-342 -349 c51 -118 93 -220 93 -224 0 -5
-25 -17 -56 -26 -71 -20 -240 -16 -296 8 l-36 16 94 216 c52 119 94 221 94
228 0 24 16 -8 107 -218z m1103 215 c0 -6 41 -103 90 -216 50 -113 90 -212 90
-219 0 -22 -97 -44 -190 -44 -88 0 -190 22 -190 41 0 6 41 103 90 217 50 113
90 212 90 219 0 7 5 13 10 13 6 0 10 -5 10 -11z m-1200 -512 c30 0 71 3 90 7
19 3 28 3 20 -1 -8 -3 -18 -11 -22 -16 -4 -6 -35 -12 -70 -14 -48 -3 -72 1
-103 17 l-40 20 35 -7 c19 -4 60 -7 90 -6z m1303 0 c-2 -4 -9 -5 -14 -2 -5 4
-9 2 -9 -4 0 -26 -158 -25 -194 2 -13 10 7 12 103 12 65 0 117 -3 114 -8z"/>
<path d="M2450 1552 c7 -14 8 -41 4 -70 -4 -26 -9 -41 -12 -33 -3 9 -7 10 -11
2 -8 -12 -84 19 -96 39 -15 25 -24 7 -10 -21 16 -30 66 -59 102 -59 12 0 22
-12 29 -36 10 -31 9 -34 -5 -29 -9 4 -35 13 -59 20 -24 7 -49 19 -57 25 -21
18 -18 3 5 -30 23 -33 79 -55 116 -46 21 6 24 3 25 -21 0 -16 5 -37 10 -48 7
-16 8 -12 7 17 -2 26 4 44 19 60 44 49 54 94 31 143 l-12 26 -12 -43 c-7 -24
-19 -61 -27 -83 l-15 -40 -8 29 c-4 16 -2 43 5 61 19 53 14 101 -15 132 -21
24 -24 25 -14 5z"/>
<path d="M502 1547 c-27 -32 -32 -66 -16 -116 13 -37 14 -56 6 -77 -7 -19 -11
-22 -11 -11 -1 10 -10 35 -21 57 -11 22 -20 52 -20 67 0 40 -20 14 -27 -35 -4
-30 0 -50 18 -81 12 -23 26 -41 31 -41 11 0 10 -72 -2 -90 -8 -13 -10 -12 -10
4 0 10 -16 40 -35 66 -19 26 -35 60 -35 74 0 37 -16 25 -23 -17 -9 -55 4 -88
51 -135 38 -39 45 -51 46 -90 2 -36 0 -41 -9 -27 -5 10 -26 37 -46 59 -21 23
-44 57 -52 76 l-15 35 -1 -56 c-1 -67 25 -113 81 -144 30 -16 38 -27 47 -65
l9 -45 -1 59 -1 59 43 13 c54 16 98 57 111 103 15 55 12 59 -16 23 -14 -18
-43 -41 -64 -52 -21 -11 -46 -30 -54 -42 -20 -29 -23 -23 -18 35 3 40 7 47 25
47 40 0 105 40 121 74 21 45 20 67 -2 40 -9 -12 -37 -32 -62 -44 -25 -12 -52
-29 -61 -36 -14 -13 -15 -9 -5 36 9 44 12 49 32 44 35 -9 91 14 114 46 23 33
26 48 5 30 -8 -6 -33 -18 -57 -25 -24 -7 -51 -16 -60 -20 -16 -6 -17 -4 -4 31
8 22 19 38 26 36 24 -6 79 19 94 43 22 33 21 52 -1 33 -33 -28 -86 -49 -94
-37 -4 8 -8 7 -11 -2 -3 -8 -8 7 -12 32 -4 25 -4 53 0 62 7 20 1 22 -14 4z
m-91 -294 c13 -16 12 -17 -3 -4 -10 7 -18 15 -18 17 0 8 8 3 21 -13z m-28
-116 c7 -6 19 -21 27 -32 15 -19 15 -19 -12 0 -15 11 -29 26 -32 33 -7 16 2
16 17 -1z"/>
<path d="M2590 1369 c0 -15 -16 -50 -35 -78 -19 -28 -35 -57 -35 -65 0 -9 -7
-12 -20 -9 -11 3 -20 9 -20 14 0 5 -27 22 -59 39 -33 16 -64 38 -70 47 -17 29
-13 -5 5 -43 17 -35 81 -74 122 -74 19 0 22 -5 22 -45 0 -26 5 -45 11 -45 7 0
10 12 7 30 -4 25 1 35 29 56 18 14 40 38 48 54 17 33 20 107 5 130 -8 12 -10
9 -10 -11z m-20 -113 c0 -2 -8 -10 -17 -17 -16 -13 -17 -12 -4 4 13 16 21 21
21 13z"/>
<path d="M2628 1254 c-5 -4 -8 -16 -8 -26 0 -10 -17 -37 -39 -61 -21 -23 -43
-52 -50 -64 l-12 -23 -32 34 c-18 18 -47 41 -64 49 -17 9 -43 31 -58 49 l-26
33 6 -35 c4 -19 15 -48 24 -63 17 -31 77 -67 111 -67 17 0 20 -6 19 -42 -1
-44 -16 -108 -18 -76 -1 9 -30 46 -66 81 -36 35 -65 72 -65 81 0 9 -4 16 -10
16 -25 0 2 -113 35 -150 10 -11 40 -30 67 -42 36 -16 47 -26 42 -37 -14 -36
-25 -83 -21 -94 2 -7 10 7 17 31 11 36 20 46 59 63 76 33 103 67 116 147 7 45
-8 60 -19 17 -3 -13 -23 -37 -43 -52 -20 -15 -50 -41 -66 -58 -24 -24 -29 -26
-24 -10 3 11 8 36 11 55 5 28 16 41 51 62 56 34 77 74 73 139 -2 28 -6 47 -10
43z m-18 -107 c0 -2 -12 -14 -27 -28 l-28 -24 24 28 c23 25 31 32 31 24z
m-190 -142 c25 -30 3 -25 -26 6 -22 24 -24 29 -8 21 11 -6 27 -18 34 -27z
m184 -17 c-2 -7 -21 -23 -42 -36 l-37 -23 39 36 c43 38 48 41 40 23z"/>
<path d="M616 1116 c-3 -14 -31 -45 -61 -71 -30 -26 -57 -56 -61 -68 -4 -12
-11 -25 -17 -29 -15 -9 -147 111 -147 133 0 11 -4 19 -10 19 -25 0 2 -105 37
-142 14 -15 47 -36 74 -48 28 -12 49 -27 49 -36 0 -8 7 -28 15 -44 15 -29 4
-44 -12 -17 -4 8 -34 30 -66 50 -31 21 -63 48 -69 62 -15 34 -30 32 -22 -2 13
-62 26 -91 47 -111 27 -26 105 -61 133 -62 14 0 24 -8 28 -22 3 -13 21 -47 41
-77 33 -50 34 -53 10 -37 -14 9 -55 26 -92 37 -36 11 -76 31 -90 45 -13 13
-26 24 -29 24 -9 0 45 -96 64 -113 30 -27 90 -46 145 -47 46 0 52 -3 103 -57
30 -32 54 -59 54 -61 0 -1 -8 1 -17 6 -10 5 -53 12 -95 14 -49 3 -86 11 -103
22 -39 26 -41 13 -3 -29 54 -62 129 -80 217 -54 35 10 41 9 101 -30 35 -23 68
-42 74 -42 6 -1 -14 -6 -44 -10 -30 -5 -75 -13 -100 -17 -25 -4 -60 -4 -78 1
-19 5 -36 6 -38 4 -9 -9 86 -65 121 -71 43 -8 109 8 157 39 34 23 38 23 66 9
17 -8 53 -20 81 -27 47 -11 69 -27 37 -27 -8 0 -48 -16 -90 -36 -48 -23 -85
-35 -101 -32 -14 3 -25 2 -25 -2 0 -11 88 -40 119 -40 40 1 104 34 145 74 36
36 37 37 95 30 46 -5 60 -11 64 -25 3 -11 12 -19 21 -19 12 0 16 10 16 45 0
38 -3 45 -20 45 -12 0 -20 -7 -20 -16 0 -14 -8 -16 -52 -10 -29 3 -65 6 -80 6
-25 0 -26 2 -21 34 8 48 -15 132 -44 167 -27 32 -123 86 -123 70 0 -6 6 -14
14 -18 20 -11 53 -72 61 -113 10 -47 42 -110 60 -117 8 -3 15 -9 15 -13 0 -4
-35 5 -77 20 -134 48 -136 49 -128 68 4 9 12 40 18 68 14 67 -8 128 -64 179
-45 40 -60 41 -34 1 11 -17 20 -59 24 -120 4 -53 13 -102 21 -111 28 -34 0
-22 -73 31 l-77 56 18 26 c30 44 42 81 42 124 0 41 -30 117 -53 136 -12 10
-12 9 -20 -208 -1 -33 -3 -60 -4 -60 -4 0 -87 92 -101 111 -12 17 -9 25 27 65
22 25 45 61 52 81 13 39 5 105 -16 143 l-14 25 -1 -36 c0 -21 -14 -63 -35
-103 -20 -36 -37 -80 -38 -96 -1 -17 -4 -30 -7 -30 -7 0 -80 135 -80 147 0 6
11 15 24 21 83 37 134 125 120 206 l-7 41 -14 -40 c-7 -22 -34 -61 -59 -86
-25 -25 -51 -64 -59 -85 -8 -24 -15 -33 -18 -24 -26 77 -37 114 -34 115 1 1
24 13 51 26 59 29 93 77 102 142 7 50 -9 67 -20 23z m-43 -108 c-18 -18 -35
-29 -39 -26 -7 8 45 57 61 58 5 0 -5 -14 -22 -32z m-147 -65 c-7 -7 -66 36
-66 48 0 6 16 -2 35 -17 20 -15 33 -29 31 -31z m199 -57 c-17 -25 -70 -66 -64
-48 2 6 20 28 39 50 37 41 53 40 25 -2z m-155 -92 c0 -15 -36 2 -68 31 l-37
36 53 -31 c28 -18 52 -34 52 -36z m216 -82 c-8 -15 -22 -34 -30 -41 -13 -11
-14 -9 -7 16 5 15 17 43 27 60 16 27 20 30 22 14 2 -11 -4 -33 -12 -49z m101
-84 c-3 -8 -6 -5 -6 6 -1 11 2 17 5 13 3 -3 4 -12 1 -19z m-257 -15 c8 -4 18
-6 22 -5 3 1 11 -5 17 -12 9 -10 3 -12 -32 -6 -42 6 -87 28 -87 42 0 6 35 -2
80 -19z m256 -69 c-10 -40 -28 -28 -20 14 4 20 9 42 13 47 9 14 14 -32 7 -61z
m154 -90 c0 -29 -4 -55 -9 -58 -11 -7 -21 43 -21 103 1 43 2 45 15 27 9 -12
15 -42 15 -72z m178 -43 c23 -40 32 -115 12 -95 -14 14 -50 134 -41 134 4 0
17 -17 29 -39z m-433 22 c32 -5 36 -7 20 -14 -30 -12 -67 -10 -100 6 l-30 14
35 -1 c19 0 53 -2 75 -5z m245 -129 c0 -13 -92 -44 -125 -42 -49 3 -32 14 50
31 39 9 71 16 73 16 1 1 2 -2 2 -5z m196 -110 c-34 -29 -99 -54 -111 -42 -6 5
139 86 145 80 3 -2 -13 -19 -34 -38z"/>
<path d="M2295 1008 c-4 -21 -4 -54 0 -74 7 -42 71 -116 115 -134 17 -7 30
-15 30 -18 0 -13 -76 -152 -82 -152 -5 0 -8 12 -8 26 0 14 -16 58 -35 97 -19
39 -35 87 -36 106 l-1 36 -19 -40 c-35 -74 -18 -149 48 -217 41 -42 44 -35
-36 -120 -19 -21 -31 -41 -27 -45 4 -5 27 13 49 40 40 44 45 47 92 48 92 0
151 32 186 101 27 52 24 65 -7 34 -15 -14 -55 -35 -90 -46 -35 -10 -76 -27
-91 -37 l-28 -18 18 25 c9 14 29 49 44 78 20 38 33 52 48 52 12 0 46 12 76 28
59 29 87 68 99 133 8 44 -1 51 -18 14 -10 -22 -141 -116 -168 -121 -7 -1 -14
10 -17 26 -3 15 -29 53 -58 84 -28 31 -57 73 -64 94 l-13 37 -7 -37z m76 -120
c42 -45 50 -65 21 -49 -21 11 -46 39 -61 69 -18 33 -4 27 40 -20z m190 -68
c-29 -25 -71 -45 -71 -34 0 8 83 64 94 64 6 -1 -4 -14 -23 -30z m-231 -158 c0
-11 -2 -11 -13 0 -30 31 -47 64 -47 93 1 28 3 26 30 -25 16 -30 29 -61 30 -68z
m175 -42 c-18 -20 -74 -36 -97 -27 -14 5 26 24 68 31 15 3 29 8 32 11 15 15
13 2 -3 -15z"/>
<path d="M2181 704 c-46 -72 -42 -147 11 -226 l19 -27 -78 -55 c-43 -30 -79
-53 -81 -51 -2 2 2 14 9 27 7 12 16 64 19 114 5 60 13 100 25 117 26 41 4 32
-42 -15 -65 -67 -78 -147 -38 -240 8 -19 6 -20 -127 -68 -43 -15 -78 -26 -78
-24 0 2 11 15 25 30 14 15 34 57 45 93 21 71 53 131 70 131 5 0 10 4 10 10 0
5 -19 0 -42 -10 -86 -38 -136 -125 -125 -217 4 -41 3 -43 -22 -43 -14 0 -50
-3 -78 -6 -45 -6 -53 -4 -53 10 0 9 -8 16 -20 16 -21 0 -22 -3 -22 -45 0 -42
1 -45 18 -45 9 0 18 8 21 19 4 14 18 20 64 25 58 7 60 7 93 -28 36 -39 107
-75 147 -76 29 0 119 29 119 38 0 4 -17 7 -38 7 -22 1 -63 14 -100 33 -33 18
-68 32 -77 32 -8 0 -15 5 -15 10 0 6 10 10 23 10 12 0 48 11 81 25 l58 24 37
-24 c85 -56 175 -53 243 7 31 27 31 28 8 22 -33 -9 -103 -6 -135 6 -32 12
-113 13 -100 2 6 -5 37 -15 70 -22 83 -17 101 -29 45 -29 -47 -1 -130 31 -130
48 0 6 15 18 33 27 17 9 51 30 74 46 39 26 47 28 80 19 93 -26 171 -6 223 57
34 42 33 51 -5 26 -17 -11 -54 -19 -103 -22 -42 -2 -86 -9 -96 -14 -16 -9 -18
-7 -13 6 4 9 3 16 -1 16 -4 0 -6 19 -4 43 2 23 -3 70 -12 105 -10 43 -12 73
-5 94 13 48 3 45 -30 -8z m14 -135 c5 -53 5 -54 -9 -24 -18 35 -22 105 -6 89
6 -6 13 -35 15 -65z m-143 -124 c-2 -30 -7 -55 -11 -55 -10 0 -13 96 -5 124
11 34 20 -4 16 -69z m-184 -58 c-11 -37 -25 -67 -29 -67 -12 0 -11 43 2 77 10
28 39 66 45 60 2 -2 -6 -33 -18 -70z m507 44 c-9 -15 -64 -23 -103 -15 l-37 7
30 7 c45 11 117 11 110 1z m-473 -245 c63 -33 67 -42 16 -32 -35 6 -108 60
-108 78 0 7 7 6 18 -3 9 -8 43 -27 74 -43z"/>
<path d="M1018 609 c-10 -5 -18 -17 -18 -24 0 -13 68 -15 485 -15 419 0 485 2
485 15 0 8 -9 19 -19 25 -27 14 -909 13 -933 -1z"/>
<path d="M1465 307 c-3 -7 -5 -47 -3 -88 3 -66 5 -74 23 -74 18 0 20 7 20 85
0 73 -2 85 -18 88 -9 2 -20 -3 -22 -11z"/>
<path d="M1397 294 c-4 -4 -7 -36 -7 -71 0 -57 2 -63 20 -63 19 0 21 5 18 67
-3 61 -14 84 -31 67z"/>
<path d="M1547 294 c-4 -4 -7 -36 -7 -71 0 -57 2 -63 20 -63 19 0 21 5 18 67
-3 61 -14 84 -31 67z"/>
</g>
</svg>
